<?xml version="1.0" encoding="UTF-8" standalone="no"?>
<svg
   xmlns:dc="http://purl.org/dc/elements/1.1/"
   xmlns:cc="http://creativecommons.org/ns#"
   xmlns:rdf="http://www.w3.org/1999/02/22-rdf-syntax-ns#"
   xmlns:svg="http://www.w3.org/2000/svg"
   xmlns="http://www.w3.org/2000/svg"
   xmlns:xlink="http://www.w3.org/1999/xlink"
   xmlns:sodipodi="http://sodipodi.sourceforge.net/DTD/sodipodi-0.dtd"
   xmlns:inkscape="http://www.inkscape.org/namespaces/inkscape"
   width="120"
   height="120"
   id="svg2"
   version="1.1"
   inkscape:version="1.0 (4035a4fb49, 2020-05-01)"
   sodipodi:docname="cyberfinity.svg"
   inkscape:export-filename="/Users/cirrus/websites/www.cyberfinity.net/src/logo/cyberfinity.png"
   inkscape:export-xdpi="562.5"
   inkscape:export-ydpi="562.5">
  <defs
     id="defs4">
    <linearGradient
       id="linearGradient3840">
      <stop
         style="stop-color:#523d48;stop-opacity:1;"
         offset="0"
         id="stop3842" />
      <stop
         style="stop-color:#523d48;stop-opacity:0;"
         offset="1"
         id="stop3844" />
    </linearGradient>
    <linearGradient
       inkscape:collect="always"
       xlink:href="#linearGradient3840"
       id="linearGradient3846"
       x1="80"
       y1="80"
       x2="40"
       y2="80"
       gradientUnits="userSpaceOnUse" />
    <linearGradient
       inkscape:collect="always"
       xlink:href="#linearGradient3840"
       id="linearGradient3856"
       gradientUnits="userSpaceOnUse"
       x1="80"
       y1="80"
       x2="40"
       y2="80" />
  </defs>
  <sodipodi:namedview
     fit-margin-bottom="0"
     fit-margin-right="0"
     fit-margin-left="0"
     fit-margin-top="0"
     id="base"
     pagecolor="#ffffff"
     bordercolor="#666666"
     borderopacity="1.0"
     inkscape:pageopacity="0.0"
     inkscape:pageshadow="2"
     inkscape:zoom="2.2721597"
     inkscape:cx="101.94702"
     inkscape:cy="50.847111"
     inkscape:document-units="px"
     inkscape:current-layer="svg2"
     showgrid="true"
     showguides="true"
     inkscape:guide-bbox="true"
     inkscape:window-width="1280"
     inkscape:window-height="668"
     inkscape:window-x="-6"
     inkscape:window-y="-6"
     inkscape:window-maximized="1"
     inkscape:document-rotation="0"
     inkscape:snap-intersection-paths="false"
     inkscape:object-paths="false"
     inkscape:snap-bbox="true"
     inkscape:bbox-paths="true">
    <inkscape:grid
       originy="-20"
       originx="-20"
       type="xygrid"
       id="grid2991"
       empspacing="5"
       visible="true"
       enabled="true"
       snapvisiblegridlinesonly="true"
       dotted="false" />
  </sodipodi:namedview>
  <metadata
     id="metadata7">
    <rdf:RDF>
      <cc:Work
         rdf:about="">
        <dc:format>image/svg+xml</dc:format>
        <dc:type
           rdf:resource="http://purl.org/dc/dcmitype/StillImage" />
        <dc:title></dc:title>
      </cc:Work>
    </rdf:RDF>
  </metadata>
  <path
     id="path48"
     style="fill:#1ee857;fill-opacity:1;stroke-width:0.800001"
     d="M 20,0 A 20,20 0 0 0 0,20 v 40 a 20,20 0 0 0 20,20 h 20 v 20 a 20,20 0 0 0 20,20 h 40 a 20,20 0 0 0 20,-20 V 60 A 20,20 0 0 0 100,40 H 80 V 20 A 20,20 0 0 0 60,0 Z m 0,10 h 40 c 5.522847,0 10,4.477153 10,10 V 30 H 30 v 20 h 70 c 5.52285,0 10,4.477153 10,10 v 40 c 0,5.53261 -4.47715,10 -10,10 H 60 c -5.532613,0 -10,-4.47715 -10,-10 V 70 H 20 C 14.467387,70 10,65.522847 10,60 V 20 c 0,-5.524995 4.475015,-9.98923 10,-10 z M 70,70 V 90 H 90 V 70 Z"
     inkscape:label="logo" />
</svg>
