<?xml version="1.0" encoding="UTF-8" standalone="no"?>
<svg
   xmlns:dc="http://purl.org/dc/elements/1.1/"
   xmlns:cc="http://creativecommons.org/ns#"
   xmlns:rdf="http://www.w3.org/1999/02/22-rdf-syntax-ns#"
   xmlns:svg="http://www.w3.org/2000/svg"
   xmlns="http://www.w3.org/2000/svg"
   xmlns:xlink="http://www.w3.org/1999/xlink"
   xmlns:sodipodi="http://sodipodi.sourceforge.net/DTD/sodipodi-0.dtd"
   xmlns:inkscape="http://www.inkscape.org/namespaces/inkscape"
   inkscape:export-ydpi="562.5"
   inkscape:export-xdpi="562.5"
   inkscape:export-filename="/Users/cirrus/websites/www.cyberfinity.net/src/logo/cyberfinity.png"
   sodipodi:docname="cyberfinity.svg"
   inkscape:version="1.0 (4035a4fb49, 2020-05-01)"
   version="1.1"
   id="svg2"
   height="160"
   width="160">
  <defs
     id="defs4">
    <linearGradient
       id="linearGradient3840">
      <stop
         id="stop3842"
         offset="0"
         style="stop-color:#523d48;stop-opacity:1;" />
      <stop
         id="stop3844"
         offset="1"
         style="stop-color:#523d48;stop-opacity:0;" />
    </linearGradient>
    <linearGradient
       gradientUnits="userSpaceOnUse"
       y2="80"
       x2="40"
       y1="80"
       x1="80"
       id="linearGradient3846"
       xlink:href="#linearGradient3840"
       inkscape:collect="always" />
    <linearGradient
       y2="80"
       x2="40"
       y1="80"
       x1="80"
       gradientUnits="userSpaceOnUse"
       id="linearGradient3856"
       xlink:href="#linearGradient3840"
       inkscape:collect="always" />
  </defs>
  <sodipodi:namedview
     inkscape:bbox-paths="true"
     inkscape:snap-bbox="true"
     inkscape:object-paths="false"
     inkscape:snap-intersection-paths="false"
     inkscape:document-rotation="0"
     inkscape:window-maximized="1"
     inkscape:window-y="-6"
     inkscape:window-x="-6"
     inkscape:window-height="668"
     inkscape:window-width="1280"
     inkscape:guide-bbox="true"
     showguides="true"
     showgrid="true"
     inkscape:current-layer="svg2"
     inkscape:document-units="px"
     inkscape:cy="70.847111"
     inkscape:cx="121.94702"
     inkscape:zoom="2.2721597"
     inkscape:pageshadow="2"
     inkscape:pageopacity="0.0"
     borderopacity="1.0"
     bordercolor="#666666"
     pagecolor="#ffffff"
     id="base">
    <inkscape:grid
       dotted="false"
       snapvisiblegridlinesonly="true"
       enabled="true"
       visible="true"
       empspacing="5"
       id="grid2991"
       type="xygrid" />
  </sodipodi:namedview>
  <metadata
     id="metadata7">
    <rdf:RDF>
      <cc:Work
         rdf:about="">
        <dc:format>image/svg+xml</dc:format>
        <dc:type
           rdf:resource="http://purl.org/dc/dcmitype/StillImage" />
        <dc:title></dc:title>
      </cc:Work>
    </rdf:RDF>
  </metadata>
  <path
     inkscape:label="bg"
     sodipodi:nodetypes="sscssccsccscscs"
     d="m 135,80 c 0,-8.284271 -6.71573,-15 -15,-15 H 95 V 40 C 95,31.715729 88.284271,25 80,25 H 40 c -8.296639,0.06223 -15.000235,6.703126 -15,15 v 40 c 0,8.284271 6.659088,15 15,15 h 25 v 25 c 0,8.28427 6.659088,15 15,15 h 40 c 8.28427,0 15,-6.65909 15,-15 z"
     style="display:inline;fill:#00ffff;stroke-width:1.34164"
     id="path160" />
  <path
     inkscape:label="logo"
     d="M 40 20 A 20 20 0 0 0 20 40 L 20 80 A 20 20 0 0 0 40 100 L 60 100 L 60 120 A 20 20 0 0 0 80 140 L 120 140 A 20 20 0 0 0 140 120 L 140 80 A 20 20 0 0 0 120 60 L 100 60 L 100 40 A 20 20 0 0 0 80 20 L 40 20 z M 40 30 L 80 30 C 85.522847 30 90 34.477153 90 40 L 90 50 L 50 50 L 50 70 L 120 70 C 125.52285 70 130 74.477153 130 80 L 130 120 C 130 125.53261 125.52285 130 120 130 L 80 130 C 74.467387 130 70 125.52285 70 120 L 70 90 L 40 90 C 34.467387 90 30 85.522847 30 80 L 30 40 C 30 34.475005 34.475015 30.01077 40 30 z M 90 90 L 90 110 L 110 110 L 110 90 L 90 90 z "
     style="stroke-width:0.800001"
     id="path48" />
</svg>
