<?xml version="1.0" encoding="UTF-8" standalone="no"?>
<!-- Created with Inkscape (http://www.inkscape.org/) -->

<svg
   xmlns:dc="http://purl.org/dc/elements/1.1/"
   xmlns:cc="http://creativecommons.org/ns#"
   xmlns:rdf="http://www.w3.org/1999/02/22-rdf-syntax-ns#"
   xmlns:svg="http://www.w3.org/2000/svg"
   xmlns="http://www.w3.org/2000/svg"
   xmlns:xlink="http://www.w3.org/1999/xlink"
   xmlns:sodipodi="http://sodipodi.sourceforge.net/DTD/sodipodi-0.dtd"
   xmlns:inkscape="http://www.inkscape.org/namespaces/inkscape"
   width="160"
   height="160"
   id="svg2"
   version="1.1"
   inkscape:version="0.48.1 r9760"
   sodipodi:docname="cyberfinity.svg"
   inkscape:export-filename="/Users/cirrus/websites/www.cyberfinity.net/src/logo/cyberfinity.png"
   inkscape:export-xdpi="562.5"
   inkscape:export-ydpi="562.5">
  <defs
     id="defs4">
    <linearGradient
       id="linearGradient3840">
      <stop
         style="stop-color:#523d48;stop-opacity:1;"
         offset="0"
         id="stop3842" />
      <stop
         style="stop-color:#523d48;stop-opacity:0;"
         offset="1"
         id="stop3844" />
    </linearGradient>
    <linearGradient
       inkscape:collect="always"
       xlink:href="#linearGradient3840"
       id="linearGradient3846"
       x1="80"
       y1="80"
       x2="40"
       y2="80"
       gradientUnits="userSpaceOnUse" />
    <linearGradient
       inkscape:collect="always"
       xlink:href="#linearGradient3840"
       id="linearGradient3856"
       gradientUnits="userSpaceOnUse"
       x1="80"
       y1="80"
       x2="40"
       y2="80" />
    <linearGradient
       inkscape:collect="always"
       xlink:href="#linearGradient3840"
       id="linearGradient3860"
       gradientUnits="userSpaceOnUse"
       x1="80"
       y1="80"
       x2="40"
       y2="80"
       gradientTransform="translate(0,892.36218)" />
  </defs>
  <sodipodi:namedview
     id="base"
     pagecolor="#ffffff"
     bordercolor="#666666"
     borderopacity="1.0"
     inkscape:pageopacity="0.0"
     inkscape:pageshadow="2"
     inkscape:zoom="2.8"
     inkscape:cx="52.384868"
     inkscape:cy="76.006772"
     inkscape:document-units="px"
     inkscape:current-layer="g3818"
     showgrid="true"
     showguides="true"
     inkscape:guide-bbox="true"
     inkscape:window-width="1346"
     inkscape:window-height="768"
     inkscape:window-x="0"
     inkscape:window-y="0"
     inkscape:window-maximized="0">
    <inkscape:grid
       type="xygrid"
       id="grid2991"
       empspacing="10"
       visible="true"
       enabled="true"
       snapvisiblegridlinesonly="true" />
  </sodipodi:namedview>
  <metadata
     id="metadata7">
    <rdf:RDF>
      <cc:Work
         rdf:about="">
        <dc:format>image/svg+xml</dc:format>
        <dc:type
           rdf:resource="http://purl.org/dc/dcmitype/StillImage" />
        <dc:title></dc:title>
      </cc:Work>
    </rdf:RDF>
  </metadata>
  <g
     inkscape:label="Cyberfinity full"
     inkscape:groupmode="layer"
     id="layer1"
     transform="translate(0,-892.36218)"
     style="display:none"
     sodipodi:insensitive="true">
    <path
       style="color:#000000;fill:#5b5b5b;fill-opacity:1;fill-rule:nonzero;stroke:none;stroke-width:4.5;marker:none;visibility:visible;display:inline;overflow:visible;enable-background:accumulate"
       d="M 50,10 C 27.90861,10 10,27.90861 10,50 10,72.09139 27.908608,90 50,90 l 20,0 0,20 c 0,22.09139 17.90861,40 40,40 22.09139,0 40,-17.90861 40,-40 0,-22.09139 -17.90861,-40 -40,-40 L 50,70 C 38.954305,70 30,61.045695 30,50 30,38.954305 38.954305,30 50,30 c 11.045695,0 20,8.954305 20,20 l 0,10 20,0 0,-10 C 90,27.908611 72.09139,9.9999956 50,10 z m 40,80 20,0 c 11.0457,0 20,8.954305 20,20 0,11.0457 -8.9543,20 -20,20 -11.045695,0 -20,-8.9543 -20,-20 l 0,-20 z"
       transform="translate(0,892.36218)"
       id="path3001"
       inkscape:connector-curvature="0" />
  </g>
  <g
     inkscape:groupmode="layer"
     id="layer4"
     inkscape:label="Cyberfinity hollow gap filler"
     style="display:inline"
     sodipodi:insensitive="true">
    <path
       id="path3848"
       style="color:#000000;fill:#d3ffa4;fill-opacity:1;fill-rule:nonzero;stroke:none;stroke-width:2;marker:none;visibility:visible;display:inline;overflow:visible;enable-background:accumulate"
       d="M 87,87 87,73 49.999999,73 C 36.19288,73 27,63.807118 27,49.999999 27,36.19288 36.192881,27 50,27 c 13.807119,0 23,9.192881 23,23 l 0,7 14,0 0,-6.999999 C 87,30.670034 69.329967,13 50.000001,13 30.670034,13 13,30.670033 13,49.999999 13,69.329966 30.670033,87 49.999999,87 z"
       inkscape:connector-curvature="0"
       sodipodi:nodetypes="cccssccccsscc" />
  </g>
  <g
     style="display:inline"
     transform="translate(0,-892.36218)"
     id="g3818"
     inkscape:groupmode="layer"
     inkscape:label="Cyberfinity hollow">
    <g
       id="g3862">
      <path
         id="path3834"
         style="color:#000000;fill:url(#linearGradient3860);fill-opacity:1;fill-rule:nonzero;stroke:none;stroke-width:2;marker:none;visibility:visible;display:inline;overflow:visible;enable-background:accumulate"
         d="m 13,942.36218 c 0,19.32997 17.670033,37 36.999999,37 l 37.000001,0 0,-14 -37.000001,0 C 36.19288,965.36218 27,956.1693 27,942.36218 z"
         inkscape:connector-curvature="0"
         sodipodi:nodetypes="ccccccc" />
      <path
         inkscape:connector-curvature="0"
         id="path3820"
         d="m 50,902.36218 c -22.09139,0 -40,17.90861 -40,40 0,22.09139 17.908608,40 40,40 l 20,0 0,20.00002 c 0,22.0914 17.90861,40 40,40 22.09139,0 40,-17.9086 40,-40 0,-22.09141 -17.90861,-40.00002 -40,-40.00002 l -60,0 c -11.045695,0 -20,-8.95431 -20,-20 0,-11.0457 8.954305,-20 20,-20 11.045695,0 20,8.9543 20,20 l 0,10 20,0 0,-10 c 0,-22.09139 -17.90861,-40 -40,-40 z m 0,5 c 19.329966,0 35,15.67003 35,35 l 0,5 -10,0 0,-5 c 0,-13.80712 -11.192881,-25 -25,-25 -13.807119,0 -25,11.19288 -25,25 0,13.80712 11.192881,25 25,25 l 35,0 0,10 -35,0 c -19.329966,0 -35,-15.67003 -35,-35 0,-19.32997 15.670033,-35 35,-35 z m 40,75 20,0 c 11.0457,0 20,8.9543 20,20.00002 0,11.0457 -8.9543,20 -20,20 -11.045695,0 -20,-8.9543 -20,-20 l 0,-20.00002 z"
         style="color:#000000;fill:#523d48;fill-opacity:1;fill-rule:nonzero;stroke:none;stroke-width:4.50000000000000000;marker:none;visibility:visible;display:inline;overflow:visible;enable-background:accumulate" />
    </g>
  </g>
</svg>
